M48
; DRILL file {KiCad 5.1.5+dfsg1-2build2} date sex 02 out 2020 15:08:54
; FORMAT={-:-/ absolute / inch / decimal}
; #@! TF.CreationDate,2020-10-02T15:08:54-03:00
; #@! TF.GenerationSoftware,Kicad,Pcbnew,5.1.5+dfsg1-2build2
; #@! TF.FileFunction,Plated,1,2,PTH
FMAT,2
INCH
T1C0.0236
T2C0.0394
%
G90
G05
T1
X1.68Y-1.715
X1.68Y-1.835
X1.68Y-1.955
X1.68Y-2.095
X1.68Y-2.23
X1.68Y-2.34
X1.685Y-2.475
X1.705Y-1.225
X1.75Y-1.6
X1.825Y-1.225
X1.83Y-2.1
X1.83Y-2.23
X1.83Y-2.34
X1.83Y-2.475
X1.845Y-1.755
X1.949Y-1.309
X1.95Y-1.885
X1.96Y-2.34
X1.96Y-2.475
X2.035Y-1.675
X2.07Y-1.27
X2.07Y-1.395
X2.07Y-1.54
X2.105Y-2.34
X2.11Y-2.475
X2.155Y-1.905
X2.26Y-1.995
X2.32Y-1.6431
X2.365Y-2.065
X2.375Y-2.3045
X2.395Y-1.54
X2.515Y-1.235
X2.515Y-1.355
X2.52Y-1.475
X2.52Y-1.605
X2.52Y-2.07
X2.52Y-2.195
X2.52Y-2.305
T2
X2.2047Y-1.2638
X2.3047Y-1.2638
X2.4047Y-1.2638
X2.0Y-1.8
X1.71Y-1.3525
X1.71Y-1.4525
X2.375Y-2.4375
X2.475Y-2.4375
X2.475Y-1.735
X2.475Y-1.835
X2.475Y-1.935
T0
M30
